# xmcd CD database file
#
# Track frame offsets:
#	150
#	17875
#	35747
#	45960
#	66252
#	81270
#	99572
#	116980
#	127390
#	140682
#	160255
#	185557
#	195000
#	210620
#	222360
#	237780
#
# Disc length: 3333 seconds
#
# Revision: 0
# Processed by: cddbd v1.5.1PL0 Copyright (c) Steve Scherf et al.
# Submitted via: CDex 1.50Beta3
#
DISCID=ed0d0310
DTITLE=Rag Mama Rag - Struttin' and Strollin'
DYEAR=2000
DGENRE=Blues
TTITLE0=No luck But Bad Luck
TTITLE1=Lazy Good For Nothing Dude
TTITLE2=Applejack Rag
TTITLE3=The Bottle Tore Me Down
TTITLE4=Busy Bootin'
TTITLE5=Make Me A Pallet On Your Floor
TTITLE6=Final Hour Blues
TTITLE7=Last Day Of Summer
TTITLE8=Itchy Feeling In My Shoes
TTITLE9=Wee Midnight Hour Blues
TTITLE10=Hard Time Kiollin'Floor
TTITLE11=Struttin' And Strollin'
TTITLE12=The Immigrant's Song
TTITLE13=Drives Me Crazy
TTITLE14=Underneath The Harlem Moon
TTITLE15=Stealin' Away
EXTD=
EXTT0=
EXTT1=
EXTT2=
EXTT3=
EXTT4=
EXTT5=
EXTT6=
EXTT7=
EXTT8=
EXTT9=
EXTT10=
EXTT11=
EXTT12=
EXTT13=
EXTT14=
EXTT15=
PLAYORDER=
